<?xml version="1.0" encoding="UTF-8" standalone="no"?>
<!DOCTYPE svg PUBLIC "-//W3C//DTD SVG 1.1//EN" "http://www.w3.org/Graphics/SVG/1.1/DTD/svg11.dtd">
<svg width="100%" height="100%" viewBox="0 0 32 32" version="1.1" xmlns="http://www.w3.org/2000/svg" xmlns:xlink="http://www.w3.org/1999/xlink" xml:space="preserve" xmlns:serif="http://www.serif.com/" style="fill-rule:evenodd;clip-rule:evenodd;stroke-linejoin:round;stroke-miterlimit:2;">
    <rect id="画板1" x="0" y="0" width="32" height="32" style="fill:rgb(255,135,41);"/>
    <g id="画板11" serif:id="画板1">
        <g transform="matrix(0.896884,0,0,0.896884,1.64986,1.64986)">
            <path d="M14.5,0.866C15.428,0.33 16.572,0.33 17.5,0.866C20.164,2.404 25.692,5.596 28.356,7.134C29.285,7.67 29.856,8.66 29.856,9.732L29.856,22.268C29.856,23.34 29.285,24.33 28.356,24.866C25.692,26.404 20.164,29.596 17.5,31.134C16.572,31.67 15.428,31.67 14.5,31.134C11.836,29.596 6.308,26.404 3.644,24.866C2.715,24.33 2.144,23.34 2.144,22.268L2.144,9.732C2.144,8.66 2.715,7.67 3.644,7.134C6.308,5.596 11.836,2.404 14.5,0.866ZM14.5,3.916C15.428,3.38 16.572,3.38 17.5,3.916C19.646,5.155 23.569,7.42 25.715,8.659C26.644,9.195 27.215,10.185 27.215,11.257L27.215,20.743C27.215,21.815 26.644,22.805 25.715,23.341C23.569,24.58 19.646,26.845 17.5,28.084C16.572,28.62 15.428,28.62 14.5,28.084C12.354,26.845 8.431,24.58 6.285,23.341C5.356,22.805 4.785,21.815 4.785,20.743L4.785,11.257C4.785,10.185 5.356,9.195 6.285,8.659C8.431,7.42 12.354,5.155 14.5,3.916Z" style="fill:white;"/>
        </g>
        <g transform="matrix(0.896884,0,0,0.896884,1.64986,1.64986)">
            <path d="M15,6.448C15.619,6.091 16.381,6.091 17,6.448C18.703,7.432 22.147,9.42 23.85,10.403C24.469,10.76 24.85,11.421 24.85,12.135L24.85,20.045C24.85,20.759 24.469,21.42 23.85,21.777C22.147,22.76 18.703,24.748 17,25.732C16.381,26.089 15.619,26.089 15,25.732C13.297,24.748 9.853,22.76 8.15,21.777C7.531,21.42 7.15,20.759 7.15,20.045L7.15,12.135C7.15,11.421 7.531,10.76 8.15,10.403C9.853,9.42 13.297,7.432 15,6.448ZM9.491,19.271C9.491,19.628 9.682,19.958 9.991,20.137C11.048,20.747 13.528,22.179 14.95,23C15.167,23.125 15.433,23.125 15.65,23C15.867,22.875 16,22.644 16,22.394L16,16.667C16,16.31 15.809,15.98 15.5,15.801C14.443,15.191 11.963,13.759 10.541,12.938C10.324,12.813 10.058,12.813 9.841,12.938C9.624,13.063 9.491,13.294 9.491,13.545L9.491,19.271Z" style="fill:white;"/>
        </g>
    </g>
</svg>
