<?xml version="1.0" encoding="UTF-8" standalone="no"?>
<!DOCTYPE svg PUBLIC "-//W3C//DTD SVG 1.1//EN" "http://www.w3.org/Graphics/SVG/1.1/DTD/svg11.dtd">
<svg width="100%" height="100%" viewBox="0 0 32 32" version="1.1" xmlns="http://www.w3.org/2000/svg" xmlns:xlink="http://www.w3.org/1999/xlink" xml:space="preserve" xmlns:serif="http://www.serif.com/" style="fill-rule:evenodd;clip-rule:evenodd;stroke-linejoin:round;stroke-miterlimit:2;">
    <g transform="matrix(0.965926,0.258819,-1.11022e-16,1.03528,0.545187,-4.70552)">
        <path d="M0,21L32,21L32,20L31.5,20L31.5,19L32,19L32,13L31.5,13L31.5,12L32,12L32,11L0,11L0,12L0.5,12L0.5,13L0,13L0,19L0.5,19L0.5,20L0,20L0,21ZM1.5,19L1.5,20L2.5,20L2.5,19L1.5,19ZM4.5,19L3.5,19L3.5,20L4.5,20L4.5,19ZM6.5,19L5.5,19L5.5,20L6.5,20L6.5,19ZM10.5,19L9.5,19L9.5,20L10.5,20L10.5,19ZM12.5,19L11.5,19L11.5,20L12.5,20L12.5,19ZM14.5,19L13.5,19L13.5,20L14.5,20L14.5,19ZM18.5,19L17.5,19L17.5,20L18.5,20L18.5,19ZM20.5,19L19.5,19L19.5,20L20.5,20L20.5,19ZM22.5,19L21.5,19L21.5,20L22.5,20L22.5,19ZM24.5,19L23.5,19L23.5,20L24.5,20L24.5,19ZM26.5,19L25.5,19L25.5,20L26.5,20L26.5,19ZM28.5,19L27.5,19L27.5,20L28.5,20L28.5,19ZM30.5,19L29.5,19L29.5,20L30.5,20L30.5,19ZM16.5,19L15.5,19L15.5,20L16.5,20L16.5,19ZM8.5,19L7.5,19L7.5,20L8.5,20L8.5,19ZM1.5,12L1.5,13L2.5,13L2.5,12L1.5,12ZM4.5,12L3.5,12L3.5,13L4.5,13L4.5,12ZM6.5,12L5.5,12L5.5,13L6.5,13L6.5,12ZM10.5,12L9.5,12L9.5,13L10.5,13L10.5,12ZM12.5,12L11.5,12L11.5,13L12.5,13L12.5,12ZM14.5,12L13.5,12L13.5,13L14.5,13L14.5,12ZM18.5,12L17.5,12L17.5,13L18.5,13L18.5,12ZM20.5,12L19.5,12L19.5,13L20.5,13L20.5,12ZM22.5,12L21.5,12L21.5,13L22.5,13L22.5,12ZM24.5,12L23.5,12L23.5,13L24.5,13L24.5,12ZM26.5,12L25.5,12L25.5,13L26.5,13L26.5,12ZM28.5,12L27.5,12L27.5,13L28.5,13L28.5,12ZM30.5,12L29.5,12L29.5,13L30.5,13L30.5,12ZM16.5,12L15.5,12L15.5,13L16.5,13L16.5,12ZM8.5,12L7.5,12L7.5,13L8.5,13L8.5,12Z" style="fill:rgb(255,135,41);"/>
    </g>
    <g transform="matrix(0.965926,-0.258819,1.11022e-16,1.03528,0.545187,3.57669)">
        <path d="M0,21L32,21L32,20L31.5,20L31.5,19L32,19L32,13L31.5,13L31.5,12L32,12L32,11L0,11L0,12L0.5,12L0.5,13L0,13L0,19L0.5,19L0.5,20L0,20L0,21ZM1.5,19L1.5,20L2.5,20L2.5,19L1.5,19ZM4.5,19L3.5,19L3.5,20L4.5,20L4.5,19ZM6.5,19L5.5,19L5.5,20L6.5,20L6.5,19ZM10.5,19L9.5,19L9.5,20L10.5,20L10.5,19ZM12.5,19L11.5,19L11.5,20L12.5,20L12.5,19ZM14.5,19L13.5,19L13.5,20L14.5,20L14.5,19ZM18.5,19L17.5,19L17.5,20L18.5,20L18.5,19ZM20.5,19L19.5,19L19.5,20L20.5,20L20.5,19ZM22.5,19L21.5,19L21.5,20L22.5,20L22.5,19ZM24.5,19L23.5,19L23.5,20L24.5,20L24.5,19ZM26.5,19L25.5,19L25.5,20L26.5,20L26.5,19ZM28.5,19L27.5,19L27.5,20L28.5,20L28.5,19ZM30.5,19L29.5,19L29.5,20L30.5,20L30.5,19ZM16.5,19L15.5,19L15.5,20L16.5,20L16.5,19ZM8.5,19L7.5,19L7.5,20L8.5,20L8.5,19ZM1.5,12L1.5,13L2.5,13L2.5,12L1.5,12ZM4.5,12L3.5,12L3.5,13L4.5,13L4.5,12ZM6.5,12L5.5,12L5.5,13L6.5,13L6.5,12ZM10.5,12L9.5,12L9.5,13L10.5,13L10.5,12ZM12.5,12L11.5,12L11.5,13L12.5,13L12.5,12ZM14.5,12L13.5,12L13.5,13L14.5,13L14.5,12ZM18.5,12L17.5,12L17.5,13L18.5,13L18.5,12ZM20.5,12L19.5,12L19.5,13L20.5,13L20.5,12ZM22.5,12L21.5,12L21.5,13L22.5,13L22.5,12ZM24.5,12L23.5,12L23.5,13L24.5,13L24.5,12ZM26.5,12L25.5,12L25.5,13L26.5,13L26.5,12ZM28.5,12L27.5,12L27.5,13L28.5,13L28.5,12ZM30.5,12L29.5,12L29.5,13L30.5,13L30.5,12ZM16.5,12L15.5,12L15.5,13L16.5,13L16.5,12ZM8.5,12L7.5,12L7.5,13L8.5,13L8.5,12Z" style="fill:rgb(250,250,253);"/>
    </g>
</svg>
