<?xml version="1.0" encoding="UTF-8" standalone="no"?>
<!DOCTYPE svg PUBLIC "-//W3C//DTD SVG 1.1//EN" "http://www.w3.org/Graphics/SVG/1.1/DTD/svg11.dtd">
<svg width="100%" height="100%" viewBox="0 0 32 32" version="1.1" xmlns="http://www.w3.org/2000/svg" xmlns:xlink="http://www.w3.org/1999/xlink" xml:space="preserve" xmlns:serif="http://www.serif.com/" style="fill-rule:evenodd;clip-rule:evenodd;stroke-linejoin:round;stroke-miterlimit:2;">
    <g transform="matrix(1.38038,0,0,1.38038,-6.0861,-6.0861)">
        <path d="M4.409,14.965L4.892,14.835L4.892,15.871L4.409,16L4.409,22.212L4.892,22.082L4.892,23.118L4.409,23.247L4.409,24.282L27.591,18.071L27.591,17.035L27.108,17.165L27.108,16.129L27.591,16L27.591,9.788L27.108,9.918L27.108,8.883L27.591,8.753L27.591,7.718L4.409,13.929L4.409,14.965ZM6.824,21.565L5.858,21.824L5.858,22.859L6.824,22.6L6.824,21.565ZM8.756,21.047L7.79,21.306L7.79,22.341L8.756,22.082L8.756,21.047ZM10.687,20.529L9.721,20.788L9.721,21.824L10.687,21.565L10.687,20.529ZM12.619,20.012L11.653,20.271L11.653,21.306L12.619,21.047L12.619,20.012ZM14.551,19.494L13.585,19.753L13.585,20.788L14.551,20.529L14.551,19.494ZM16.483,18.976L15.517,19.235L15.517,20.271L16.483,20.012L16.483,18.976ZM18.415,18.459L17.449,18.718L17.449,19.753L18.415,19.494L18.415,18.459ZM20.347,17.941L19.381,18.2L19.381,19.235L20.347,18.977L20.347,17.941ZM22.279,17.424L21.313,17.682L21.313,18.718L22.279,18.459L22.279,17.424ZM24.21,16.906L23.244,17.165L23.244,18.2L24.21,17.941L24.21,16.906ZM26.142,16.388L25.176,16.647L25.176,17.682L26.142,17.424L26.142,16.388ZM6.824,14.318L5.858,14.577L5.858,15.612L6.824,15.353L6.824,14.318ZM8.756,13.8L7.79,14.059L7.79,15.094L8.756,14.835L8.756,13.8ZM10.687,13.282L9.721,13.541L9.721,14.577L10.687,14.318L10.687,13.282ZM12.619,12.765L11.653,13.024L11.653,14.059L12.619,13.8L12.619,12.765ZM14.551,12.247L13.585,12.506L13.585,13.541L14.551,13.282L14.551,12.247ZM16.483,11.73L15.517,11.988L15.517,13.024L16.483,12.765L16.483,11.73ZM18.415,11.212L17.449,11.471L17.449,12.506L18.415,12.247L18.415,11.212ZM20.347,10.694L19.381,10.953L19.381,11.988L20.347,11.73L20.347,10.694ZM22.279,10.177L21.313,10.435L21.313,11.471L22.279,11.212L22.279,10.177ZM24.21,9.659L23.244,9.918L23.244,10.953L24.21,10.694L24.21,9.659ZM26.142,9.141L25.176,9.4L25.176,10.435L26.142,10.177L26.142,9.141Z" style="fill:rgb(250,250,253);"/>
    </g>
    <path d="M14.5,0.866C15.428,0.33 16.572,0.33 17.5,0.866C20.164,2.404 25.692,5.596 28.356,7.134C29.285,7.67 29.856,8.66 29.856,9.732L29.856,22.268C29.856,23.34 29.285,24.33 28.356,24.866C25.692,26.404 20.164,29.596 17.5,31.134C16.572,31.67 15.428,31.67 14.5,31.134C11.836,29.596 6.308,26.404 3.644,24.866C2.715,24.33 2.144,23.34 2.144,22.268L2.144,9.732C2.144,8.66 2.715,7.67 3.644,7.134C6.308,5.596 11.836,2.404 14.5,0.866ZM14.5,3.916C15.428,3.38 16.572,3.38 17.5,3.916C19.646,5.155 23.569,7.42 25.715,8.659C26.644,9.195 27.215,10.185 27.215,11.257L27.215,20.743C27.215,21.815 26.644,22.805 25.715,23.341C23.569,24.58 19.646,26.845 17.5,28.084C16.572,28.62 15.428,28.62 14.5,28.084C12.354,26.845 8.431,24.58 6.285,23.341C5.356,22.805 4.785,21.815 4.785,20.743L4.785,11.257C4.785,10.185 5.356,9.195 6.285,8.659C8.431,7.42 12.354,5.155 14.5,3.916Z" style="fill:rgb(255,135,41);"/>
    <path d="M15,6.448C15.619,6.091 16.381,6.091 17,6.448C18.703,7.432 22.147,9.42 23.85,10.403C24.469,10.76 24.85,11.421 24.85,12.135L24.85,20.045C24.85,20.759 24.469,21.42 23.85,21.777C22.147,22.76 18.703,24.748 17,25.732C16.381,26.089 15.619,26.089 15,25.732C13.297,24.748 9.853,22.76 8.15,21.777C7.531,21.42 7.15,20.759 7.15,20.045L7.15,12.135C7.15,11.421 7.531,10.76 8.15,10.403C9.853,9.42 13.297,7.432 15,6.448ZM9.491,19.271C9.491,19.628 9.682,19.958 9.991,20.137C11.048,20.747 13.528,22.179 14.95,23C15.167,23.125 15.433,23.125 15.65,23C15.867,22.875 16,22.644 16,22.394C16,20.752 16,17.888 16,16.667C16,16.31 15.809,15.98 15.5,15.801C14.443,15.191 11.963,13.759 10.541,12.938C10.324,12.813 10.058,12.813 9.841,12.938C9.624,13.063 9.491,13.294 9.491,13.545L9.491,19.271Z" style="fill:rgb(255,135,41);"/>
</svg>
