<?xml version="1.0" encoding="UTF-8" standalone="no"?>
<!DOCTYPE svg PUBLIC "-//W3C//DTD SVG 1.1//EN" "http://www.w3.org/Graphics/SVG/1.1/DTD/svg11.dtd">
<svg width="100%" height="100%" viewBox="0 0 32 32" version="1.1" xmlns="http://www.w3.org/2000/svg" xmlns:xlink="http://www.w3.org/1999/xlink" xml:space="preserve" xmlns:serif="http://www.serif.com/" style="fill-rule:evenodd;clip-rule:evenodd;stroke-linejoin:round;stroke-miterlimit:2;">
    <g transform="matrix(0.965926,0.258819,-1.11022e-16,1.03528,0.545187,-4.70552)">
        <path d="M0,21L32,21L32,20L31.5,20L31.5,19L32,19L32,13L31.5,13L31.5,12L32,12L32,11L0,11L0,12L0.5,12L0.5,13L0,13L0,19L0.5,19L0.5,20L0,20L0,21ZM1.5,19L1.5,20L2.5,20L2.5,19L1.5,19ZM4.5,19L3.5,19L3.5,20L4.5,20L4.5,19ZM6.5,19L5.5,19L5.5,20L6.5,20L6.5,19ZM10.5,19L9.5,19L9.5,20L10.5,20L10.5,19ZM12.5,19L11.5,19L11.5,20L12.5,20L12.5,19ZM14.5,19L13.5,19L13.5,20L14.5,20L14.5,19ZM18.5,19L17.5,19L17.5,20L18.5,20L18.5,19ZM20.5,19L19.5,19L19.5,20L20.5,20L20.5,19ZM22.5,19L21.5,19L21.5,20L22.5,20L22.5,19ZM24.5,19L23.5,19L23.5,20L24.5,20L24.5,19ZM26.5,19L25.5,19L25.5,20L26.5,20L26.5,19ZM28.5,19L27.5,19L27.5,20L28.5,20L28.5,19ZM30.5,19L29.5,19L29.5,20L30.5,20L30.5,19ZM16.5,19L15.5,19L15.5,20L16.5,20L16.5,19ZM8.5,19L7.5,19L7.5,20L8.5,20L8.5,19ZM1.5,12L1.5,13L2.5,13L2.5,12L1.5,12ZM4.5,12L3.5,12L3.5,13L4.5,13L4.5,12ZM6.5,12L5.5,12L5.5,13L6.5,13L6.5,12ZM10.5,12L9.5,12L9.5,13L10.5,13L10.5,12ZM12.5,12L11.5,12L11.5,13L12.5,13L12.5,12ZM14.5,12L13.5,12L13.5,13L14.5,13L14.5,12ZM18.5,12L17.5,12L17.5,13L18.5,13L18.5,12ZM20.5,12L19.5,12L19.5,13L20.5,13L20.5,12ZM22.5,12L21.5,12L21.5,13L22.5,13L22.5,12ZM24.5,12L23.5,12L23.5,13L24.5,13L24.5,12ZM26.5,12L25.5,12L25.5,13L26.5,13L26.5,12ZM28.5,12L27.5,12L27.5,13L28.5,13L28.5,12ZM30.5,12L29.5,12L29.5,13L30.5,13L30.5,12ZM16.5,12L15.5,12L15.5,13L16.5,13L16.5,12ZM8.5,12L7.5,12L7.5,13L8.5,13L8.5,12Z" style="fill:rgb(255,135,41);"/>
    </g>
    <g>
        <path d="M4.409,14.965L4.892,14.835L4.892,15.871L4.409,16L4.409,22.212L4.892,22.082L4.892,23.118L4.409,23.247L4.409,24.282L27.591,18.071L27.591,17.035L27.108,17.165L27.108,16.129L27.591,16L27.591,9.788L27.108,9.918L27.108,8.883L27.591,8.753L27.591,7.718L4.409,13.929L4.409,14.965ZM6.824,21.565L5.858,21.824L5.858,22.859L6.824,22.6L6.824,21.565ZM8.756,21.047L7.79,21.306L7.79,22.341L8.756,22.082L8.756,21.047ZM10.687,20.529L9.721,20.788L9.721,21.824L10.687,21.565L10.687,20.529ZM12.619,20.012L11.653,20.271L11.653,21.306L12.619,21.047L12.619,20.012ZM14.551,19.494L13.585,19.753L13.585,20.788L14.551,20.529L14.551,19.494ZM16.483,18.976L15.517,19.235L15.517,20.271L16.483,20.012L16.483,18.976ZM18.415,18.459L17.449,18.718L17.449,19.753L18.415,19.494L18.415,18.459ZM20.347,17.941L19.381,18.2L19.381,19.235L20.347,18.977L20.347,17.941ZM22.279,17.424L21.313,17.682L21.313,18.718L22.279,18.459L22.279,17.424ZM24.21,16.906L23.244,17.165L23.244,18.2L24.21,17.941L24.21,16.906ZM26.142,16.388L25.176,16.647L25.176,17.682L26.142,17.424L26.142,16.388ZM6.824,14.318L5.858,14.577L5.858,15.612L6.824,15.353L6.824,14.318ZM8.756,13.8L7.79,14.059L7.79,15.094L8.756,14.835L8.756,13.8ZM10.687,13.282L9.721,13.541L9.721,14.577L10.687,14.318L10.687,13.282ZM12.619,12.765L11.653,13.024L11.653,14.059L12.619,13.8L12.619,12.765ZM14.551,12.247L13.585,12.506L13.585,13.541L14.551,13.282L14.551,12.247ZM16.483,11.73L15.517,11.988L15.517,13.024L16.483,12.765L16.483,11.73ZM18.415,11.212L17.449,11.471L17.449,12.506L18.415,12.247L18.415,11.212ZM20.347,10.694L19.381,10.953L19.381,11.988L20.347,11.73L20.347,10.694ZM22.279,10.177L21.313,10.435L21.313,11.471L22.279,11.212L22.279,10.177ZM24.21,9.659L23.244,9.918L23.244,10.953L24.21,10.694L24.21,9.659ZM26.142,9.141L25.176,9.4L25.176,10.435L26.142,10.177L26.142,9.141Z" style="fill:rgb(250,250,253);"/>
    </g>
</svg>
