<?xml version="1.0" encoding="UTF-8" standalone="no"?>
<!DOCTYPE svg PUBLIC "-//W3C//DTD SVG 1.1//EN" "http://www.w3.org/Graphics/SVG/1.1/DTD/svg11.dtd">
<svg width="100%" height="100%" viewBox="0 0 1920 1920" version="1.1" xmlns="http://www.w3.org/2000/svg" xmlns:xlink="http://www.w3.org/1999/xlink" xml:space="preserve" xmlns:serif="http://www.serif.com/" style="fill-rule:evenodd;clip-rule:evenodd;stroke-linejoin:round;stroke-miterlimit:2;">
    <path id="_6" serif:id="6" d="M812.09,671.043L415.409,671.043L366.28,960L762.961,960L661.797,1555L58,1555L231.035,537.283L834.832,537.283L812.09,671.043ZM491.788,1414.56L288.994,1414.56L342.169,1101.81L544.963,1101.81L491.788,1414.56Z" style="fill:rgb(255,135,41);"/>
    <path id="bg" d="M1671.76,1358.8L991.71,1358.8L1131.39,537.283L1811.44,537.283L1671.76,1358.8Z" style="fill:rgb(247,248,250);"/>
    <path id="bg1" serif:id="bg" d="M1550.44,602.369L1507.29,602.369L1516.15,550.238L1559.31,550.238L1550.44,602.369ZM1200.44,602.369L1157.29,602.369L1166.15,550.238L1209.31,550.238L1200.44,602.369ZM1620.44,602.369L1577.29,602.369L1586.15,550.238L1629.31,550.238L1620.44,602.369ZM1270.44,602.369L1227.29,602.369L1236.15,550.238L1279.31,550.238L1270.44,602.369ZM1690.44,602.369L1647.29,602.369L1656.15,550.238L1699.31,550.238L1690.44,602.369ZM1340.44,602.369L1297.29,602.369L1306.15,550.238L1349.31,550.238L1340.44,602.369ZM1760.44,602.369L1717.29,602.369L1726.15,550.238L1769.31,550.238L1760.44,602.369ZM1410.44,602.369L1367.29,602.369L1376.15,550.238L1419.31,550.238L1410.44,602.369ZM1809.24,550.238L1800.37,602.369L1787.29,602.369L1796.15,550.238L1809.24,550.238ZM1480.44,602.369L1437.29,602.369L1446.15,550.238L1489.31,550.238L1480.44,602.369ZM1129.18,550.238L1139.31,550.238L1130.44,602.369L1120.32,602.369L1129.18,550.238Z" style="fill:rgb(34,35,34);"/>
    <path id="t" d="M861.229,516.407L684.644,1555L938.289,1555L1114.87,516.407L1814.99,516.407L1846,334L265.598,334L234.585,516.407L861.229,516.407Z" style="fill:rgb(255,135,41);"/>
    <g transform="matrix(6.5135,0,-1.12602,10.8558,-4563.62,-14715.6)">
        <g>
            <g transform="matrix(1,0,0,1,1105.9,1499.51)">
                <path d="M18.757,-16.608L17.749,-8.463C17.607,-7.95 17.329,-7.526 16.913,-7.19C16.497,-6.854 16.095,-6.686 15.706,-6.686L6.792,-6.686L6.022,-1.592L1.194,-1.592L2.971,-15.865L2.202,-16.608L18.757,-16.608ZM7.826,-14.061L7.296,-9.232L12.655,-9.232L13.424,-14.061L7.826,-14.061Z" style="fill:rgb(255,135,41);fill-rule:nonzero;"/>
            </g>
            <g transform="matrix(1,0,0,1,1123.81,1499.51)">
                <g>
                    <path d="M7.163,-12.787L6.659,-9.232L10.241,-12.787L15.334,-12.787L6.659,-5.147L6.155,-1.592L1.061,-1.592L2.547,-12.045L2.016,-12.787L7.163,-12.787Z" style="fill:rgb(255,135,41);fill-rule:nonzero;"/>
                    <path d="M28.732,-12.787C29.245,-12.787 29.63,-12.58 29.886,-12.164C30.143,-11.748 30.271,-11.284 30.271,-10.771L28.997,-1.592L17.536,-1.592C17.023,-1.592 16.639,-1.76 16.382,-2.096C16.126,-2.432 15.998,-2.856 15.998,-3.369L17.271,-12.787L28.732,-12.787ZM22.099,-10.241L21.091,-4.139L24.142,-4.139L25.177,-10.241L22.099,-10.241Z" style="fill:rgb(255,135,41);fill-rule:nonzero;"/>
                    <path d="M42.581,-18.147L47.674,-18.147L45.393,-1.592L33.932,-1.592C33.419,-1.592 33.034,-1.76 32.778,-2.096C32.521,-2.432 32.393,-2.856 32.393,-3.369L33.667,-12.787L41.811,-12.787L42.581,-18.147ZM38.362,-10.241L37.381,-4.139L40.617,-4.139L41.573,-10.241L38.362,-10.241Z" style="fill:rgb(255,135,41);fill-rule:nonzero;"/>
                    <path d="M56.27,-12.787L55.103,-4.828L58.286,-5.147L59.321,-12.045L58.552,-12.787L64.415,-12.787L62.876,-1.592L57.782,-1.592L57.942,-2.6L49.638,-1.592L51.176,-12.045L50.407,-12.787L56.27,-12.787Z" style="fill:rgb(255,135,41);fill-rule:nonzero;"/>
                    <path d="M81.049,-10.241L72.904,-10.241L71.896,-4.139L79.006,-4.139L80.28,-5.147L79.776,-1.592L66.537,-1.592L68.315,-12.787L81.314,-12.787L81.049,-10.241Z" style="fill:rgb(255,135,41);fill-rule:nonzero;"/>
                    <path d="M96.941,-6.181L88.796,-6.181L88.531,-4.139L95.667,-4.139L96.941,-5.147L96.171,-1.592L84.976,-1.592C84.463,-1.592 84.078,-1.76 83.822,-2.096C83.565,-2.432 83.437,-2.856 83.437,-3.369L84.71,-12.787L97.949,-12.787L96.941,-6.181ZM89.539,-10.241L89.3,-8.728L92.351,-8.728L92.616,-10.241L89.539,-10.241Z" style="fill:rgb(255,135,41);fill-rule:nonzero;"/>
                </g>
            </g>
        </g>
    </g>
    <g transform="matrix(0.55,0,-0.0787017,1,1047.79,1329.8)">
        <g>
            <path d="M176.544,-52.992L143.136,2.304L97.92,2.304L146.016,-70.56L106.56,-70.56L110.304,-96.768L118.368,-96.768L129.6,-177.408L172.224,-177.408L174.528,-193.536L164.16,-204.48L218.88,-204.48L214.848,-177.408L257.76,-177.408L246.528,-96.768L254.016,-96.768L250.272,-70.56L212.544,-70.56L239.616,2.592L194.976,2.592L176.544,-52.992ZM31.968,-186.624L26.496,-194.976L120.96,-194.976L94.752,-8.928L6.912,-8.928L31.968,-186.624ZM67.392,-36.288L74.88,-91.008L51.264,-91.008L43.776,-36.288L67.392,-36.288ZM55.296,-118.368L78.912,-118.368L85.824,-167.616L62.208,-167.616L55.296,-118.368ZM154.656,-96.768L164.16,-96.768L171.936,-152.64L162.432,-152.64L154.656,-96.768ZM208.512,-152.64L200.736,-96.768L210.24,-96.768L218.016,-152.64L208.512,-152.64Z" style="fill:rgb(34,35,34);fill-rule:nonzero;"/>
            <path d="M381.888,-163.872L383.04,-171.936L301.248,-171.936L304.128,-194.112L385.92,-194.112L376.992,-204.768L441.792,-204.768L440.064,-194.112L522.72,-194.112L519.84,-171.936L436.896,-171.936L435.744,-163.872L512.928,-163.872L510.048,-144L432.864,-144L432,-136.512L519.84,-136.512L516.384,-111.456L383.904,-111.456L356.256,-100.8L504.288,-100.8L501.12,-78.912L390.24,-78.912L351.36,-68.544L447.264,-68.544L445.824,-75.744L500.544,-75.744L507.168,-43.488L452.448,-43.488L451.872,-46.368L419.904,-46.368L415.008,-10.368C414.432,-6.528 412.08,-3.456 407.952,-1.152C403.824,1.152 398.976,2.304 393.408,2.304L341.856,2.304L366.336,-15.84L370.656,-46.368L288.288,-46.368L291.456,-68.544L330.048,-78.912L293.184,-78.912L296.352,-101.376L320.832,-111.456L286.848,-111.456L290.304,-136.512L378.144,-136.512L379.008,-144L302.4,-144L305.28,-163.872L381.888,-163.872ZM321.12,-2.88L271.872,-2.88L304.416,-38.592L353.376,-38.592L321.12,-2.88ZM501.12,-2.592L451.872,-2.592L435.168,-37.728L484.416,-37.728L501.12,-2.592Z" style="fill:rgb(34,35,34);fill-rule:nonzero;"/>
            <path d="M635.616,-197.568L629.568,-204.768L681.408,-204.768L675.36,-182.88L787.68,-182.88L783.936,-155.52L723.456,-155.52L719.136,-125.28L768.672,-125.28L764.928,-98.208L715.392,-98.208L711.072,-67.968L766.08,-67.968L762.336,-40.608L707.328,-40.608L701.28,2.592L649.152,2.592L671.328,-155.52L667.872,-155.52L658.944,-122.688L615.168,-122.688L635.616,-197.568ZM614.016,-171.936L589.248,2.592L537.12,2.592L560.448,-161.28L543.456,-158.112L548.064,-190.944L618.624,-204.768L614.016,-171.936Z" style="fill:rgb(34,35,34);fill-rule:nonzero;"/>
            <path d="M979.2,-25.056L989.856,-101.376L965.664,-101.376L934.56,1.728L889.056,1.728L934.848,-149.472L907.488,-149.472L911.52,-177.984L957.312,-177.984L958.752,-188.352L953.28,-199.296L1013.18,-199.296L1010.3,-177.984L1054.37,-177.984L1050.34,-149.472L980.352,-149.472L974.016,-128.16L1040.83,-128.16L1024.99,-13.824C1024.22,-9.408 1022.06,-5.712 1018.51,-2.736C1014.96,0.24 1010.98,1.728 1006.56,1.728L957.312,1.728L979.2,-25.056ZM884.448,-18.72L800.352,-2.304L804.96,-34.272L825.696,-38.304L836.064,-110.592L815.616,-110.592L819.648,-139.104L840.096,-139.104L847.008,-188.352L838.368,-199.296L891.648,-199.296L883.008,-139.104L901.44,-139.104L897.408,-110.592L878.976,-110.592L870.048,-46.944L889.056,-50.688L884.448,-18.72Z" style="fill:rgb(34,35,34);fill-rule:nonzero;"/>
        </g>
    </g>
</svg>
